<mxfile host="app.diagrams.net" modified="2024-05-30T03:58:43.223Z" agent="Mozilla/5.0 (Macintosh; Intel Mac OS X 10_15_7) AppleWebKit/537.36 (KHTML, like Gecko) Chrome/124.0.0.0 Safari/537.36" version="24.4.6" etag="GyrocJnEfGbC6Iet0fUK" type="github">
  <diagram name="第 1 页" id="YHxd9JYfiW8sMkb5GXAt">
    <mxGraphModel>
      <root>
        <mxCell id="0" />
        <mxCell id="1" parent="0" />
      </root>
    </mxGraphModel>
  </diagram>
</mxfile>
